<?xml version="1.0" encoding="UTF-8"?>
<svg width="128pt" height="128pt" version="1.1" viewBox="0 0 128 128" xmlns="http://www.w3.org/2000/svg">
 <g>
  <path d="m63.617 54.145v28.543l-9.7305-9.7266c2.1758-2.6875 3.457-6.0156 3.457-9.7266 0-8.5742-7.0391-15.617-15.617-15.617-8.5742 0-15.617 7.0391-15.617 15.617 0 8.5742 7.0391 15.617 15.617 15.617 3.9688 0 7.5508-1.5352 10.367-3.9688l11.391 11.391v28.543c0 0.76953 0.51172 1.2812 1.2812 1.2812s1.2812-0.51172 1.2812-1.2812v-28.543l11.52-11.52c2.8164 2.4336 6.3984 3.9688 10.367 3.9688 8.5742 0 15.617-7.0391 15.617-15.617 0-8.5742-7.0391-15.617-15.617-15.617-8.5742 0-15.617 7.0391-15.617 15.617 0 3.7109 1.2812 7.0391 3.457 9.7266l-9.7266 9.7266v-28.414c9.7266-0.64062 17.535-8.832 17.535-18.688 0-10.367-8.4492-18.816-18.816-18.816s-18.688 8.4492-18.688 18.688c0 9.9844 7.8086 18.047 17.539 18.816zm-21.762 22.145c-7.168 0-13.055-5.8867-13.055-13.055 0-7.1719 5.7578-13.059 13.055-13.059s13.055 5.8867 13.055 13.055-5.8867 13.059-13.055 13.059zm46.082-26.113c7.168 0 13.055 5.8867 13.055 13.055s-5.8867 13.055-13.055 13.055c-7.168 0.003906-12.93-5.8867-12.93-13.055s5.7617-13.055 12.93-13.055zm-23.043-30.977c8.9609 0 16.258 7.2969 16.258 16.258 0 8.9609-7.2969 16.258-16.258 16.258-8.957-0.003906-16.254-7.4258-16.254-16.387s7.2969-16.129 16.254-16.129z"/>
  <path d="m32.512 45.953c5.8867 0 10.625-4.7344 10.625-10.625 0-5.8867-4.7344-10.625-10.625-10.625-5.8867 0-10.625 4.7344-10.625 10.625 0 5.8867 4.7383 10.625 10.625 10.625zm0-18.562c4.4805 0 8.0625 3.5859 8.0625 8.0625 0 4.4805-3.5859 8.0625-8.0625 8.0625-4.4805 0-8.0625-3.5859-8.0625-8.0625s3.582-8.0625 8.0625-8.0625z"/>
  <path d="m97.281 45.953c5.8867 0 10.625-4.7344 10.625-10.625 0-5.8867-4.7344-10.625-10.625-10.625-5.8867 0-10.625 4.7344-10.625 10.625 0 5.8867 4.8633 10.625 10.625 10.625zm0-18.562c4.4805 0 8.0625 3.5859 8.0625 8.0625 0 4.4805-3.5859 8.0625-8.0625 8.0625-4.4805 0-8.0625-3.5859-8.0625-8.0625-0.003906-4.4766 3.7109-8.0625 8.0625-8.0625z"/>
 </g>
</svg>
